<?xml version="1.0" encoding="utf-8"?>
<!-- Generator: Adobe Illustrator 23.0.4, SVG Export Plug-In . SVG Version: 6.00 Build 0)  -->
<svg version="1.1" id="Layer_1" xmlns="http://www.w3.org/2000/svg" xmlns:xlink="http://www.w3.org/1999/xlink" x="0px" y="0px"
	 viewBox="0 0 1024 294" style="enable-background:new 0 0 1024 294;" xml:space="preserve">
<style type="text/css">
	.st0{fill:#FFFFFF;}
	.st1{enable-background:new    ;}
</style>
<g>
	<path class="st0" d="M999.3,139.3l-9,2.5c-8.6-30.4-23.1-43.4-43.6-43.4c-14.4,0-24.5,9.8-24.5,25.3c0,14.8,11.9,22.8,44,36.1
		c29.6,11.2,41.8,24.9,41.8,48.8c0,36.5-27.8,59.3-73.5,59.3c-22,0-46.8-5.1-60.9-10.8l-1.8-50.6l8.6-1.8
		c13,34.7,29.6,47.7,51.2,47.7c18.7,0,28.5-13.4,28.5-27.1c0-13.7-7.6-21.7-36.8-32.5c-27.7-9.4-46.9-21.7-46.9-52.1
		c0-30,25.6-55.3,69.2-55.3c20.6,0,39.3,3.6,51.5,9.4L999.3,139.3z M811.2,155.2c1.1-23.9-3.6-58.2-22.7-58.2
		c-19.5,0-30.3,32.2-30.6,59.6L811.2,155.2z M793.2,85.4c47.9,0,71,36.1,71.4,83.5H756.8c-0.4,41.9,21.3,73.7,61.6,73.7
		c17.7,0,27.8-5.1,38.6-13l5.1,5.8c-11.9,16.6-36.4,32.5-69.2,32.5c-52.6,0-89-37.2-89-89.6C703.8,130.9,733.7,85.4,793.2,85.4
		 M637.8,173.3c-1.1-37.6-14.4-67.2-40-67.2c-6.1,0-10.8,1.1-18,3.6c0,60,0.7,128,2.2,144.2c2.5,1.1,8.6,1.8,13,1.8
		C619.8,255.7,637.8,219.5,637.8,173.3 M691.2,170.3c0,59.3-36.4,97.6-98,97.6c-22,0-44.7-3.6-64.5-8.3c1.8-23.9,1.8-171.3,0-199.2
		c-1.8-14.5-5.8-21.3-16.6-22.8l-7.2-0.7v-6.5l76-14.4c-0.4,12.3-1.1,44.5-1.1,82.4c13.3-6.9,25.6-10.8,42.2-10.8
		C661.6,87.6,691.2,122.3,691.2,170.3 M497.6,138.2c-23.4-15.9-48.7-9-53.7,0c-2.2,27.8-1.8,70.5,0.4,92.5
		c1.1,14.5,5.1,20.6,15.9,21.7l14.4,1.4v9.4H367.2v-9.4l8.3-1.4c10.5-1.1,14.1-7.2,14.8-21.7c2.5-23.5,3.2-72.7,0-99.8
		c-0.7-15.5-4.3-21.3-14.8-22.8l-8.3-1.1v-6.5L444,85.3l-1.1,40.5c18-41.9,53.7-47,73.2-35.8L497.6,138.2z M245.7,176.9
		c0,44.1,11.5,80.3,35,80.3c25.2,0,32.4-35.4,32.4-80.3c0-44.8-11.2-79.9-35-79.9C252.9,97,245.7,131.3,245.7,176.9 M367.5,176.1
		c0,50.6-32.4,91.8-90.5,91.8c-56.9,0-85.8-39-85.8-90.4c0-50.2,32.4-92.2,90.5-92.2C338.7,85.4,367.5,124.8,367.5,176.1 M218.3,89
		l-11.9,3.6C196.3,57.2,178.7,37,148,37h-40c-2.2,23.5-3.2,60-2.2,99.4l26.7-1.4c18,0,25.6-13.4,29.9-32.9h10.1v82.1h-10.1
		c-4.3-19.9-11.9-33.3-29.9-34.3l-26.7-0.4c0,29.3,0.4,54.2,2.2,69.4c1.8,21.7,7.6,31.5,23.1,33.6l14.4,1.4v9.4H15v-9.4l10.8-1.4
		c15.1-2.2,21.3-11.9,23.1-33.6c2.9-35.4,3.6-111,0-152.9C47.1,43.5,41,34.4,25.8,32.6L15,30.8V21h202.9L218.3,89z"/>
</g>
<g class="st1">
	<path class="st0" d="M608.5,49.4c0-10.8,5.8-18.4,14.9-18.4c6.9,0,10.2,4.4,12,8.5l-5.9,2.6c-1.1-2.8-3.1-4.8-6.1-4.8
		c-4.7,0-7.6,5.1-7.6,12c0,7,2.9,12,7.6,12c3,0,5.1-2.2,6.1-5.2l5.9,2.6c-1.8,4.3-5,8.9-12,8.9C614.3,67.8,608.5,60.2,608.5,49.4z"
		/>
	<path class="st0" d="M639.6,31.6H660v6.2h-13.2V46h12.8v6.2h-12.8v8.7H660v6.2h-20.3V31.6z"/>
	<path class="st0" d="M672.3,44.5v22.6h-7.1V31.6h7.2l11.7,21.7V31.6h7.1v35.5h-6.8L672.3,44.5z"/>
	<path class="st0" d="M703.4,37.9h-7.9v-6.3h22.9v6.3h-7.9v29.2h-7.1V37.9z"/>
	<path class="st0" d="M733.7,54.3h-3.8v12.9h-7.1V31.6h13.3c6.5,0,10.8,4.7,10.8,11.2c0,6.1-3.2,9.2-6.2,10.2l6.4,14.1h-7.9
		L733.7,54.3z M734.9,37.9h-5.1v10.2h5.1c2.8,0,4.6-2.1,4.6-5.1C739.5,39.8,737.7,37.9,734.9,37.9z"/>
</g>
<g class="st1">
	<path class="st0" d="M770.7,31.1c9.3,0,14.9,7.8,14.9,18.4c0,10.6-5.5,18.4-14.9,18.4c-9.3,0-14.8-7.8-14.8-18.4
		C755.9,38.9,761.5,31.1,770.7,31.1z M770.7,37.4c-4.8,0-7.5,5.2-7.5,12c0,6.8,2.6,12,7.5,12c4.9,0,7.6-5.3,7.6-12
		C778.3,42.6,775.6,37.4,770.7,37.4z"/>
</g>
<g class="st1">
	<path class="st0" d="M807.8,60.8h-11.6l-1.6,6.3h-7.4l10.5-35.5h8.6l10.5,35.5h-7.4L807.8,60.8z M797.7,54.6h8.7L802,38L797.7,54.6
		z"/>
	<path class="st0" d="M845.8,42.8l-8,24.4h-2.9L827,42.8v24.4h-7.1V31.6h9.6l6.9,21.3l6.9-21.3h9.5v35.5h-7V42.8z"/>
	<path class="st0" d="M859.1,31.6h20.3v6.2h-13.2V46H879v6.2h-12.8v8.7h13.2v6.2h-20.3V31.6z M867.2,28.7l5.7-7.7h5.7l-7.1,7.7
		H867.2z"/>
	<path class="st0" d="M895.7,54.3h-3.8v12.9h-7.1V31.6h13.3c6.5,0,10.8,4.7,10.8,11.2c0,6.1-3.2,9.2-6.2,10.2l6.4,14.1h-7.9
		L895.7,54.3z M896.9,37.9h-5.1v10.2h5.1c2.8,0,4.6-2.1,4.6-5.1C901.5,39.8,899.6,37.9,896.9,37.9z"/>
	<path class="st0" d="M914,31.6h7.1v35.5H914V31.6z"/>
</g>
<g class="st1">
	<path class="st0" d="M931.2,49.4c0-10.8,5.8-18.4,14.9-18.4c6.9,0,10.2,4.4,12,8.5l-5.9,2.6c-1.1-2.8-3.1-4.8-6.1-4.8
		c-4.7,0-7.6,5.1-7.6,12c0,7,2.9,12,7.6,12c3,0,5.1-2.2,6.1-5.2l5.9,2.6c-1.8,4.3-5,8.9-12,8.9C937.1,67.8,931.2,60.2,931.2,49.4z"
		/>
</g>
<g class="st1">
	<path class="st0" d="M980.7,60.8h-11.6l-1.6,6.3h-7.4l10.5-35.5h8.6l10.5,35.5h-7.4L980.7,60.8z M970.5,54.6h8.7L974.9,38
		L970.5,54.6z"/>
</g>
</svg>
